M48
; DRILL file {KiCad (6.0.2)} date Fri May 13 11:08:25 2022
; FORMAT={-:-/ absolute / inch / decimal}
; #@! TF.CreationDate,2022-05-13T11:08:25-07:00
; #@! TF.GenerationSoftware,Kicad,Pcbnew,(6.0.2)
; #@! TF.FileFunction,NonPlated,1,2,NPTH
FMAT,2
INCH
; #@! TA.AperFunction,NonPlated,NPTH,ComponentDrill
T1C0.0670
; #@! TA.AperFunction,NonPlated,NPTH,ComponentDrill
T2C0.1200
; #@! TA.AperFunction,NonPlated,NPTH,ComponentDrill
T3C0.1570
%
G90
G05
T1
X0.425Y-4.125
X0.425Y-4.875
X0.425Y-7.125
X0.525Y-7.875
X0.8Y-5.625
X0.825Y-4.125
X0.825Y-4.875
X0.825Y-7.125
X0.925Y-7.875
X0.9875Y-6.375
X1.175Y-4.125
X1.175Y-4.875
X1.175Y-7.125
X1.2Y-5.625
X1.3875Y-6.375
X1.4625Y-7.875
X1.55Y-5.625
X1.575Y-4.125
X1.575Y-4.875
X1.575Y-7.125
X1.7375Y-6.375
X1.8625Y-7.875
X1.925Y-4.125
X1.925Y-4.875
X1.925Y-7.125
X1.95Y-5.625
X2.1375Y-6.375
X2.3Y-5.625
X2.325Y-4.125
X2.325Y-4.875
X2.325Y-7.125
X2.4875Y-6.375
X2.675Y-4.125
X2.675Y-4.875
X2.675Y-7.125
X2.7Y-5.625
X2.8875Y-6.375
X3.05Y-5.625
X3.075Y-4.125
X3.075Y-4.875
X3.075Y-7.125
X3.2375Y-6.375
X3.425Y-4.125
X3.425Y-4.875
X3.425Y-7.125
X3.45Y-5.625
X3.6375Y-6.375
X3.8Y-5.625
X3.825Y-4.125
X3.825Y-4.875
X3.825Y-7.125
X3.9875Y-6.375
X4.175Y-4.125
X4.175Y-4.875
X4.175Y-7.125
X4.2Y-5.625
X4.3875Y-6.375
X4.55Y-5.625
X4.575Y-4.125
X4.575Y-4.875
X4.575Y-7.125
X4.7375Y-6.375
X4.925Y-4.875
X4.925Y-7.125
X4.925Y-7.875
X4.95Y-5.625
X5.1375Y-6.375
X5.3Y-5.625
X5.325Y-4.875
X5.325Y-7.125
X5.325Y-7.875
X5.4875Y-6.375
X5.675Y-4.875
X5.675Y-7.125
X5.7Y-5.625
X5.8875Y-6.375
X6.05Y-5.625
X6.075Y-4.875
X6.075Y-7.125
X6.2375Y-6.375
X6.425Y-4.875
X6.425Y-7.125
X6.45Y-5.625
X6.6375Y-6.375
X6.8Y-5.625
X6.825Y-4.875
X6.825Y-7.125
X6.9875Y-6.375
X7.175Y-4.875
X7.175Y-7.125
X7.2Y-5.625
X7.3875Y-6.375
X7.55Y-5.625
X7.575Y-4.875
X7.575Y-7.125
X7.7375Y-6.375
X7.925Y-4.875
X7.925Y-7.125
X7.95Y-5.625
X8.1375Y-6.375
X8.3Y-5.625
X8.325Y-4.875
X8.325Y-7.125
X8.4875Y-6.375
X8.675Y-4.875
X8.675Y-7.125
X8.675Y-7.875
X8.7Y-5.625
X8.8875Y-6.375
X9.05Y-5.625
X9.075Y-4.875
X9.075Y-7.125
X9.075Y-7.875
X9.425Y-4.125
X9.425Y-4.875
X9.425Y-7.125
X9.425Y-7.875
X9.45Y-5.625
X9.7062Y-6.375
X9.825Y-4.125
X9.825Y-4.875
X9.825Y-7.125
X9.825Y-7.875
X9.9875Y-5.625
X10.1062Y-6.375
X10.175Y-4.125
X10.175Y-4.875
X10.175Y-7.125
X10.175Y-7.875
X10.3875Y-5.625
X10.575Y-4.125
X10.575Y-4.875
X10.575Y-7.125
X10.575Y-7.875
T2
X3.155Y-8.15
X7.095Y-8.15
X9.4362Y-6.1
X10.3763Y-6.1
T3
X0.625Y-4.125
X0.625Y-4.875
X0.625Y-7.125
X0.725Y-7.875
X1.0Y-5.625
X1.1875Y-6.375
X1.375Y-4.125
X1.375Y-4.875
X1.375Y-7.125
X1.6625Y-7.875
X1.75Y-5.625
X1.9375Y-6.375
X2.125Y-4.125
X2.125Y-4.875
X2.125Y-7.125
X2.5Y-5.625
X2.6875Y-6.375
X2.875Y-4.125
X2.875Y-4.875
X2.875Y-7.125
X3.155Y-7.55
X3.25Y-5.625
X3.4375Y-6.375
X3.625Y-4.125
X3.625Y-4.875
X3.625Y-7.125
X4.0Y-5.625
X4.1875Y-6.375
X4.375Y-4.125
X4.375Y-4.875
X4.375Y-7.125
X4.75Y-5.625
X4.9375Y-6.375
X5.125Y-4.875
X5.125Y-7.125
X5.125Y-7.875
X5.5Y-5.625
X5.6875Y-6.375
X5.875Y-4.875
X5.875Y-7.125
X6.25Y-5.625
X6.4375Y-6.375
X6.625Y-4.875
X6.625Y-7.125
X7.0Y-5.625
X7.095Y-7.55
X7.1875Y-6.375
X7.375Y-4.875
X7.375Y-7.125
X7.75Y-5.625
X7.9375Y-6.375
X8.125Y-4.875
X8.125Y-7.125
X8.5Y-5.625
X8.6875Y-6.375
X8.875Y-4.875
X8.875Y-7.125
X8.875Y-7.875
X9.25Y-5.625
X9.4362Y-6.7
X9.625Y-4.125
X9.625Y-4.875
X9.625Y-7.125
X9.625Y-7.875
X9.9062Y-6.375
X10.1875Y-5.625
X10.375Y-4.125
X10.375Y-4.875
X10.375Y-7.125
X10.375Y-7.875
X10.3763Y-6.7
T0
M30
