M48
; DRILL file {KiCad (5.1.0)-1} date 2/28/2020 3:13:48 PM
; FORMAT={-:-/ absolute / inch / decimal}
; #@! TF.CreationDate,2020-02-28T15:13:48-08:00
; #@! TF.GenerationSoftware,Kicad,Pcbnew,(5.1.0)-1
FMAT,2
INCH
T1C0.0157
T2C0.0315
T3C0.0320
T4C0.0394
T5C0.0394
T6C0.0400
T7C0.0410
T8C0.0512
T9C0.0590
T10C0.0591
T11C0.0620
T12C0.0945
T13C0.1024
T14C0.1050
T15C0.1200
T16C0.1201
T17C0.1220
T18C0.0670
T19C0.1200
T20C0.1570
%
G90
G05
T1
X0.7254Y-1.9754
X0.8Y-1.775
X1.075Y-1.95
X1.125Y-2.175
X1.1375Y-1.8625
X1.175Y-1.225
X1.4Y-3.65
X1.425Y-2.1
X1.425Y-2.475
X1.45Y-3.65
X1.5Y-1.6
X1.5Y-3.65
X1.55Y-3.525
X1.575Y-1.9
X1.75Y-2.1875
X1.7875Y-2.1
X1.8Y-3.35
X1.825Y-2.025
X2.0Y-2.65
X2.095Y-2.1325
X2.125Y-1.625
X2.2625Y-1.35
X2.2875Y-2.1625
X2.2882Y-2.3132
X2.4Y-2.5125
X2.4375Y-2.6
X2.4375Y-1.35
X2.5Y-4.175
X2.675Y-2.0
X2.7Y-0.2875
X2.7125Y-2.6875
X2.87Y-5.75
X2.875Y-2.7
X3.1Y-2.05
X3.25Y-2.4
X3.3Y-0.2875
X3.4Y-1.8
X3.55Y-1.85
X3.625Y-5.075
X3.65Y-4.75
X3.875Y-2.4
X3.975Y-1.3
X4.05Y-2.425
X4.15Y-2.1
X4.4875Y-2.2625
X4.5Y-3.1
X4.7Y-1.05
X4.975Y-2.75
X5.0Y-1.9
X5.25Y-1.4125
X5.35Y-5.075
X5.4129Y-1.3004
X5.4375Y-2.55
X5.5875Y-1.4375
X5.6Y-2.8
X5.6375Y-1.5375
X5.7125Y-1.6375
X5.75Y-2.4625
X5.825Y-2.35
X5.9Y-2.25
X5.975Y-2.15
X6.1875Y-1.85
X6.2125Y-1.95
X6.225Y-3.0
X6.2375Y-2.05
X6.2625Y-2.525
X6.2875Y-2.675
X6.3Y-7.35
X6.3125Y-2.9625
X6.3375Y-2.2875
X6.35Y-2.9
X6.5525Y-1.2475
X6.75Y-0.95
X6.8Y-0.9
X6.8Y-2.3
X6.825Y-3.05
X6.85Y-2.225
X6.8625Y-1.7375
X6.875Y-1.5
X6.9Y-2.1
X6.925Y-3.15
X6.95Y-2.0125
X7.0375Y-1.8875
X7.05Y-5.025
X7.1125Y-2.3875
X7.1125Y-2.15
X7.1375Y-1.6
X7.1625Y-2.0375
X7.1625Y-2.6125
X7.2125Y-2.0375
X7.2375Y-2.5125
X7.325Y-1.975
X7.45Y-2.225
X7.4625Y-0.8
X7.475Y-1.5
X7.525Y-2.05
X7.55Y-2.125
X7.5875Y-2.8625
X7.625Y-2.4625
X7.7Y-2.1875
X7.7Y-2.2625
X7.7375Y-2.3
X7.775Y-2.3875
X7.8125Y-2.5
X7.85Y-2.6
X7.8875Y-2.0375
X7.95Y-3.0
X7.975Y-1.2625
X7.9868Y-2.1118
X8.0875Y-1.625
X8.9125Y-2.075
X9.15Y-1.6
X9.45Y-0.9
X9.85Y-2.725
T2
X1.6008Y-1.1
X1.6992Y-1.1
X2.4008Y-0.4
X2.4992Y-0.4
X2.4008Y-0.7
X2.4992Y-0.7
X1.2508Y-1.1
X1.3492Y-1.1
X8.7008Y-0.45
X8.7992Y-0.45
X0.9008Y-1.1
X0.9992Y-1.1
T3
X6.6Y-3.55
X6.8Y-3.55
X5.0Y-4.3
X5.3Y-4.3
X5.5Y-1.45
X5.5Y-1.55
X5.5Y-1.65
X5.5Y-1.75
X5.5Y-1.85
X5.5Y-1.95
X5.5Y-2.05
X5.5Y-2.15
X5.5Y-2.25
X5.5Y-2.35
X5.5Y-2.45
X5.5Y-2.55
X5.5Y-2.65
X5.5Y-2.75
X5.5Y-2.85
X5.5Y-2.95
X5.5Y-3.05
X5.5Y-3.15
X5.5Y-3.25
X5.5Y-3.35
X6.1Y-1.45
X6.1Y-1.55
X6.1Y-1.65
X6.1Y-1.75
X6.1Y-1.85
X6.1Y-1.95
X6.1Y-2.05
X6.1Y-2.15
X6.1Y-2.25
X6.1Y-2.35
X6.1Y-2.45
X6.1Y-2.55
X6.1Y-2.65
X6.1Y-2.75
X6.1Y-2.85
X6.1Y-2.95
X6.1Y-3.05
X6.1Y-3.15
X6.1Y-3.25
X6.1Y-3.35
X9.6Y-0.35
X9.9Y-0.35
X7.6Y-1.65
X7.6Y-1.75
X7.6Y-1.85
X7.6Y-1.95
X7.9Y-1.65
X7.9Y-1.75
X7.9Y-1.85
X7.9Y-1.95
X4.8Y-3.55
X5.0Y-3.55
X4.6Y-1.15
X4.9Y-1.15
X2.5Y-1.85
X2.7Y-1.85
X8.25Y-1.2
X8.35Y-1.2
X8.45Y-1.2
X5.05Y-1.05
X5.25Y-1.05
X4.2Y-1.15
X4.5Y-1.15
X1.9Y-0.75
X1.9Y-0.85
X1.9Y-0.95
X1.9Y-1.05
X1.9Y-1.15
X1.9Y-1.25
X1.9Y-1.35
X1.9Y-1.45
X1.9Y-1.55
X1.9Y-1.65
X2.2Y-0.75
X2.2Y-0.85
X2.2Y-0.95
X2.2Y-1.05
X2.2Y-1.15
X2.2Y-1.25
X2.2Y-1.35
X2.2Y-1.45
X2.2Y-1.55
X2.2Y-1.65
X9.7Y-1.85
X9.9Y-1.85
X0.75Y-0.65
X0.95Y-0.65
X7.6Y-0.95
X7.6Y-1.05
X7.6Y-1.15
X7.6Y-1.25
X7.9Y-0.95
X7.9Y-1.05
X7.9Y-1.15
X7.9Y-1.25
X9.1Y-2.25
X9.1Y-2.35
X9.1Y-2.45
X9.1Y-2.55
X9.1Y-2.65
X9.1Y-2.75
X9.1Y-2.85
X9.1Y-2.95
X9.1Y-3.05
X9.1Y-3.15
X9.1Y-3.25
X9.1Y-3.35
X9.7Y-2.25
X9.7Y-2.35
X9.7Y-2.45
X9.7Y-2.55
X9.7Y-2.65
X9.7Y-2.75
X9.7Y-2.85
X9.7Y-2.95
X9.7Y-3.05
X9.7Y-3.15
X9.7Y-3.25
X9.7Y-3.35
X5.3Y-2.05
X5.3Y-2.15
X5.3Y-2.25
X5.3Y-2.35
X5.3Y-2.45
X5.3Y-2.55
X1.7Y-2.15
X1.7Y-2.35
X6.4Y-1.05
X6.4Y-1.15
X6.4Y-1.25
X6.4Y-1.35
X6.4Y-1.45
X6.4Y-1.55
X6.4Y-1.65
X6.7Y-1.05
X6.7Y-1.15
X6.7Y-1.25
X6.7Y-1.35
X6.7Y-1.45
X6.7Y-1.55
X6.7Y-1.65
X5.0Y-1.25
X5.3Y-1.25
X7.5Y-3.55
X7.7Y-3.55
X3.9Y-1.25
X4.1Y-1.25
X4.5Y-1.45
X4.5Y-1.55
X4.5Y-1.65
X4.5Y-1.75
X4.5Y-1.85
X4.5Y-1.95
X3.1Y-0.95
X3.1Y-1.05
X3.1Y-1.15
X3.1Y-1.25
X3.1Y-1.35
X3.1Y-1.45
X3.1Y-1.55
X3.1Y-1.65
X3.4Y-0.95
X3.4Y-1.05
X3.4Y-1.15
X3.4Y-1.25
X3.4Y-1.35
X3.4Y-1.45
X3.4Y-1.55
X3.4Y-1.65
X8.075Y-4.125
X8.175Y-4.125
X3.1Y-1.85
X3.3Y-1.85
X6.4Y-1.85
X6.6Y-1.85
X10.1Y-3.55
X10.3Y-3.55
X3.7Y-1.45
X3.7Y-1.55
X3.7Y-1.65
X3.7Y-1.75
X3.7Y-1.85
X3.7Y-1.95
X3.7Y-2.05
X3.7Y-2.15
X3.7Y-2.25
X3.7Y-2.35
X3.7Y-2.45
X3.7Y-2.55
X3.7Y-2.65
X3.7Y-2.75
X3.7Y-2.85
X3.7Y-2.95
X3.7Y-3.05
X3.7Y-3.15
X3.7Y-3.25
X3.7Y-3.35
X4.3Y-1.45
X4.3Y-1.55
X4.3Y-1.65
X4.3Y-1.75
X4.3Y-1.85
X4.3Y-1.95
X4.3Y-2.05
X4.3Y-2.15
X4.3Y-2.25
X4.3Y-2.35
X4.3Y-2.45
X4.3Y-2.55
X4.3Y-2.65
X4.3Y-2.75
X4.3Y-2.85
X4.3Y-2.95
X4.3Y-3.05
X4.3Y-3.15
X4.3Y-3.25
X4.3Y-3.35
X4.6Y-0.55
X4.6Y-0.65
X4.6Y-0.75
X4.6Y-0.85
X4.9Y-0.55
X4.9Y-0.65
X4.9Y-0.75
X4.9Y-0.85
X5.3Y-1.45
X5.3Y-1.55
X5.3Y-1.65
X5.3Y-1.75
X5.3Y-1.85
X5.3Y-1.95
X3.9Y-3.55
X4.1Y-3.55
X4.3Y-4.1
X4.6Y-4.1
X7.6Y-0.8
X7.8Y-0.8
X3.55Y-1.25
X3.75Y-1.25
X2.1Y-3.55
X2.3Y-3.55
X4.3Y-4.2
X4.6Y-4.2
X8.6Y-0.75
X8.9Y-0.75
X9.1Y-1.85
X9.3Y-1.85
X8.6Y-1.25
X8.9Y-1.25
X4.6Y-1.45
X4.6Y-1.55
X4.6Y-1.65
X4.6Y-1.75
X4.6Y-1.85
X4.6Y-1.95
X4.6Y-2.05
X4.6Y-2.15
X4.6Y-2.25
X4.6Y-2.35
X4.6Y-2.45
X4.6Y-2.55
X4.6Y-2.65
X4.6Y-2.75
X4.6Y-2.85
X4.6Y-2.95
X4.6Y-3.05
X4.6Y-3.15
X4.6Y-3.25
X4.6Y-3.35
X5.2Y-1.45
X5.2Y-1.55
X5.2Y-1.65
X5.2Y-1.75
X5.2Y-1.85
X5.2Y-1.95
X5.2Y-2.05
X5.2Y-2.15
X5.2Y-2.25
X5.2Y-2.35
X5.2Y-2.45
X5.2Y-2.55
X5.2Y-2.65
X5.2Y-2.75
X5.2Y-2.85
X5.2Y-2.95
X5.2Y-3.05
X5.2Y-3.15
X5.2Y-3.25
X5.2Y-3.35
X4.3Y-4.3
X4.6Y-4.3
X0.4Y-0.85
X0.6Y-0.85
X8.35Y-4.05
X8.65Y-4.05
X7.0Y-0.95
X7.0Y-1.05
X7.0Y-1.15
X7.0Y-1.25
X7.0Y-1.35
X7.0Y-1.45
X7.0Y-1.55
X7.0Y-1.65
X7.3Y-0.95
X7.3Y-1.05
X7.3Y-1.15
X7.3Y-1.25
X7.3Y-1.35
X7.3Y-1.45
X7.3Y-1.55
X7.3Y-1.65
X4.6Y-1.05
X4.8Y-1.05
X3.9Y-1.15
X4.1Y-1.15
X4.6Y-1.25
X4.9Y-1.25
X10.3Y-1.05
X10.3Y-1.15
X10.3Y-1.25
X10.3Y-1.35
X10.3Y-1.45
X10.3Y-1.55
X10.3Y-1.65
X10.6Y-1.05
X10.6Y-1.15
X10.6Y-1.25
X10.6Y-1.35
X10.6Y-1.45
X10.6Y-1.55
X10.6Y-1.65
X0.75Y-0.8
X0.85Y-0.8
X0.95Y-0.8
X4.6Y-0.35
X4.8Y-0.35
X8.6Y-1.15
X8.9Y-1.15
X10.022Y-0.55
X10.278Y-0.55
X5.7Y-3.55
X5.9Y-3.55
X7.3Y-2.25
X7.3Y-2.35
X7.3Y-2.45
X7.3Y-2.55
X7.3Y-2.65
X7.3Y-2.75
X7.3Y-2.85
X7.3Y-2.95
X7.3Y-3.05
X7.3Y-3.15
X7.3Y-3.25
X7.3Y-3.35
X7.9Y-2.25
X7.9Y-2.35
X7.9Y-2.45
X7.9Y-2.55
X7.9Y-2.65
X7.9Y-2.75
X7.9Y-2.85
X7.9Y-2.95
X7.9Y-3.05
X7.9Y-3.15
X7.9Y-3.25
X7.9Y-3.35
X0.4Y-1.05
X0.4Y-1.15
X0.4Y-1.25
X0.4Y-1.35
X0.4Y-1.45
X0.4Y-1.55
X0.4Y-1.65
X0.7Y-1.05
X0.7Y-1.15
X0.7Y-1.25
X0.7Y-1.35
X0.7Y-1.45
X0.7Y-1.55
X0.7Y-1.65
X1.9Y-2.05
X1.9Y-2.15
X1.9Y-2.25
X1.9Y-2.35
X1.9Y-2.45
X1.9Y-2.55
X1.9Y-2.65
X1.9Y-2.75
X1.9Y-2.85
X1.9Y-2.95
X1.9Y-3.05
X1.9Y-3.15
X1.9Y-3.25
X1.9Y-3.35
X2.5Y-2.05
X2.5Y-2.15
X2.5Y-2.25
X2.5Y-2.35
X2.5Y-2.45
X2.5Y-2.55
X2.5Y-2.65
X2.5Y-2.75
X2.5Y-2.85
X2.5Y-2.95
X2.5Y-3.05
X2.5Y-3.15
X2.5Y-3.25
X2.5Y-3.35
X0.4539Y-3.15
X0.6461Y-3.15
X1.9Y-1.85
X2.1Y-1.85
X8.6Y-0.85
X8.9Y-0.85
X1.0Y-1.45
X1.0Y-1.55
X1.0Y-1.65
X1.0Y-1.75
X1.0Y-1.85
X1.0Y-1.95
X1.0Y-2.05
X1.0Y-2.15
X1.0Y-2.25
X1.0Y-2.35
X1.0Y-2.45
X1.0Y-2.55
X1.0Y-2.65
X1.0Y-2.75
X1.0Y-2.85
X1.0Y-2.95
X1.0Y-3.05
X1.0Y-3.15
X1.0Y-3.25
X1.0Y-3.35
X1.6Y-1.45
X1.6Y-1.55
X1.6Y-1.65
X1.6Y-1.75
X1.6Y-1.85
X1.6Y-1.95
X1.6Y-2.05
X1.6Y-2.15
X1.6Y-2.25
X1.6Y-2.35
X1.6Y-2.45
X1.6Y-2.55
X1.6Y-2.65
X1.6Y-2.75
X1.6Y-2.85
X1.6Y-2.95
X1.6Y-3.05
X1.6Y-3.15
X1.6Y-3.25
X1.6Y-3.35
X0.9Y-2.15
X0.9Y-2.35
X1.7Y-1.45
X1.7Y-1.65
X5.0Y-4.1
X5.3Y-4.1
X8.2Y-1.45
X8.2Y-1.55
X8.2Y-1.65
X8.2Y-1.75
X8.2Y-1.85
X8.2Y-1.95
X8.2Y-2.05
X8.2Y-2.15
X8.2Y-2.25
X8.2Y-2.35
X8.2Y-2.45
X8.2Y-2.55
X8.2Y-2.65
X8.2Y-2.75
X8.2Y-2.85
X8.2Y-2.95
X8.2Y-3.05
X8.2Y-3.15
X8.2Y-3.25
X8.2Y-3.35
X8.8Y-1.45
X8.8Y-1.55
X8.8Y-1.65
X8.8Y-1.75
X8.8Y-1.85
X8.8Y-1.95
X8.8Y-2.05
X8.8Y-2.15
X8.8Y-2.25
X8.8Y-2.35
X8.8Y-2.45
X8.8Y-2.55
X8.8Y-2.65
X8.8Y-2.75
X8.8Y-2.85
X8.8Y-2.95
X8.8Y-3.05
X8.8Y-3.15
X8.8Y-3.25
X8.8Y-3.35
X3.5Y-1.15
X3.8Y-1.15
X0.45Y-3.35
X0.65Y-3.35
X8.4Y-3.55
X8.6Y-3.55
X5.0Y-4.2
X5.3Y-4.2
X7.0Y-1.85
X7.2Y-1.85
X5.0Y-4.0
X5.3Y-4.0
X8.825Y-4.125
X8.925Y-4.125
X3.0Y-3.55
X3.2Y-3.55
X9.65Y-0.7
X9.75Y-0.7
X9.85Y-0.7
X7.6Y-1.4
X7.8Y-1.4
X5.0Y-1.15
X5.3Y-1.15
X0.45Y-1.85
X0.65Y-1.85
X9.9Y-2.25
X9.9Y-2.35
X9.9Y-2.45
X9.9Y-2.55
X9.9Y-2.65
X9.9Y-2.75
X9.9Y-2.85
X9.9Y-2.95
X9.9Y-3.05
X9.9Y-3.15
X4.25Y-1.25
X4.45Y-1.25
X2.8Y-2.25
X2.8Y-2.35
X2.8Y-2.45
X2.8Y-2.55
X2.8Y-2.65
X2.8Y-2.75
X2.8Y-2.85
X2.8Y-2.95
X2.8Y-3.05
X2.8Y-3.15
X2.8Y-3.25
X2.8Y-3.35
X3.4Y-2.25
X3.4Y-2.35
X3.4Y-2.45
X3.4Y-2.55
X3.4Y-2.65
X3.4Y-2.75
X3.4Y-2.85
X3.4Y-2.95
X3.4Y-3.05
X3.4Y-3.15
X3.4Y-3.25
X3.4Y-3.35
X7.6Y-1.5
X7.8Y-1.5
X8.6Y-1.05
X8.9Y-1.05
X0.9Y-2.65
X0.9Y-2.95
X7.6Y-2.1
X7.8Y-2.1
X8.65Y-0.65
X8.85Y-0.65
X9.7Y-0.85
X10.0Y-0.85
X9.3Y-3.55
X9.5Y-3.55
X10.3Y-1.85
X10.5Y-1.85
X4.3Y-4.0
X4.6Y-4.0
X2.5Y-1.05
X2.5Y-1.15
X2.5Y-1.25
X2.5Y-1.35
X2.5Y-1.45
X2.5Y-1.55
X2.5Y-1.65
X2.8Y-1.05
X2.8Y-1.15
X2.8Y-1.25
X2.8Y-1.35
X2.8Y-1.45
X2.8Y-1.55
X2.8Y-1.65
X9.7Y-1.05
X9.7Y-1.15
X9.7Y-1.25
X9.7Y-1.35
X9.7Y-1.45
X9.7Y-1.55
X9.7Y-1.65
X10.0Y-1.05
X10.0Y-1.15
X10.0Y-1.25
X10.0Y-1.35
X10.0Y-1.45
X10.0Y-1.55
X10.0Y-1.65
X0.4Y-2.05
X0.4Y-2.15
X0.4Y-2.25
X0.4Y-2.35
X0.4Y-2.45
X0.4Y-2.55
X0.4Y-2.65
X0.4Y-2.75
X0.7Y-2.05
X0.7Y-2.15
X0.7Y-2.25
X0.7Y-2.35
X0.7Y-2.45
X0.7Y-2.55
X0.7Y-2.65
X0.7Y-2.75
X9.65Y-0.55
X9.85Y-0.55
X6.4Y-2.05
X6.4Y-2.15
X6.4Y-2.25
X6.4Y-2.35
X6.4Y-2.45
X6.4Y-2.55
X6.4Y-2.65
X6.4Y-2.75
X6.4Y-2.85
X6.4Y-2.95
X6.4Y-3.05
X6.4Y-3.15
X6.4Y-3.25
X6.4Y-3.35
X7.0Y-2.05
X7.0Y-2.15
X7.0Y-2.25
X7.0Y-2.35
X7.0Y-2.45
X7.0Y-2.55
X7.0Y-2.65
X7.0Y-2.75
X7.0Y-2.85
X7.0Y-2.95
X7.0Y-3.05
X7.0Y-3.15
X7.0Y-3.25
X7.0Y-3.35
X10.0Y-2.25
X10.0Y-2.35
X10.0Y-2.45
X10.0Y-2.55
X10.0Y-2.65
X10.0Y-2.75
X10.0Y-2.85
X10.0Y-2.95
X10.0Y-3.05
X10.0Y-3.15
X10.0Y-3.25
X10.0Y-3.35
X10.6Y-2.25
X10.6Y-2.35
X10.6Y-2.45
X10.6Y-2.55
X10.6Y-2.65
X10.6Y-2.75
X10.6Y-2.85
X10.6Y-2.95
X10.6Y-3.05
X10.6Y-3.15
X10.6Y-3.25
X10.6Y-3.35
X0.45Y-2.95
X0.65Y-2.95
X9.1Y-1.05
X9.1Y-1.15
X9.1Y-1.25
X9.1Y-1.35
X9.1Y-1.45
X9.1Y-1.55
X9.1Y-1.65
X9.4Y-1.05
X9.4Y-1.15
X9.4Y-1.25
X9.4Y-1.35
X9.4Y-1.45
X9.4Y-1.55
X9.4Y-1.65
X8.35Y-4.15
X8.65Y-4.15
T4
X2.7Y-0.4
X2.8Y-0.4
X2.9Y-0.4
X3.1Y-0.4
X3.2Y-0.4
X3.3Y-0.4
X3.4Y-0.4
T5
X0.7615Y-0.3516
X0.9387Y-0.3516
T6
X5.25Y-0.45
X5.25Y-0.55
X5.35Y-0.45
X5.35Y-0.55
X5.45Y-0.45
X5.45Y-0.55
X5.55Y-0.45
X5.55Y-0.55
X5.65Y-0.45
X5.65Y-0.55
X5.75Y-0.45
X5.75Y-0.55
X5.85Y-0.45
X5.85Y-0.55
X5.95Y-0.45
X5.95Y-0.55
X6.05Y-0.45
X6.05Y-0.55
X6.15Y-0.45
X6.15Y-0.55
X6.25Y-0.45
X6.25Y-0.55
X6.35Y-0.45
X6.35Y-0.55
X6.45Y-0.45
X6.45Y-0.55
X1.9Y-0.35
X2.0Y-0.35
X2.1Y-0.35
X2.7Y-0.775
X2.8Y-0.775
X2.9Y-0.775
X3.0Y-0.775
X3.1Y-0.775
X3.2Y-0.775
X3.3Y-0.775
X3.4Y-0.775
T7
X7.534Y-0.681
X7.588Y-0.569
X7.642Y-0.681
X7.696Y-0.569
X7.75Y-0.681
X7.805Y-0.569
X7.858Y-0.681
X7.912Y-0.569
X7.966Y-0.681
T8
X3.7547Y-0.8484
X3.8531Y-0.75
X3.9516Y-0.3563
X3.9516Y-0.8484
X4.05Y-0.75
X4.05Y-0.9469
X4.1484Y-0.3563
X4.1484Y-0.8484
X4.2469Y-0.75
X4.3453Y-0.8484
T9
X9.1Y-5.525
X9.35Y-5.425
X9.7562Y-6.275
X10.0062Y-6.175
X0.575Y-7.775
X0.825Y-7.675
X4.225Y-4.775
X4.475Y-4.675
X6.1Y-5.525
X6.35Y-5.425
X3.1Y-5.525
X3.35Y-5.425
X3.475Y-4.775
X3.725Y-4.675
X0.85Y-5.525
X1.1Y-5.425
X7.975Y-7.025
X8.225Y-6.925
X8.725Y-7.775
X8.975Y-7.675
X10.225Y-4.025
X10.475Y-3.925
X4.7875Y-6.275
X5.0375Y-6.175
X6.475Y-4.775
X6.725Y-4.675
X1.6Y-5.525
X1.85Y-5.425
X2.725Y-7.025
X2.975Y-6.925
X1.975Y-4.775
X2.225Y-4.675
X5.35Y-5.525
X5.6Y-5.425
X7.225Y-7.025
X7.475Y-6.925
X2.35Y-5.525
X2.6Y-5.425
X6.85Y-5.525
X7.1Y-5.425
X9.475Y-4.775
X9.725Y-4.675
X1.975Y-4.025
X2.225Y-3.925
X9.475Y-7.775
X9.725Y-7.675
X1.5125Y-7.775
X1.7625Y-7.675
X2.725Y-4.775
X2.975Y-4.675
X10.0375Y-5.525
X10.2875Y-5.425
X2.5375Y-6.275
X2.7875Y-6.175
X4.0375Y-6.275
X4.2875Y-6.175
X7.225Y-4.775
X7.475Y-4.675
X10.225Y-7.025
X10.475Y-6.925
X4.225Y-7.025
X4.475Y-6.925
X3.475Y-4.025
X3.725Y-3.925
X7.6Y-5.525
X7.85Y-5.425
X7.7875Y-6.275
X8.0375Y-6.175
X7.975Y-4.775
X8.225Y-4.675
X3.475Y-7.025
X3.725Y-6.925
X7.0375Y-6.275
X7.2875Y-6.175
X9.475Y-4.025
X9.725Y-3.925
X1.225Y-4.025
X1.475Y-3.925
X6.2875Y-6.275
X6.5375Y-6.175
X8.35Y-5.525
X8.6Y-5.425
X4.975Y-7.025
X5.225Y-6.925
X8.725Y-7.025
X8.975Y-6.925
X1.225Y-4.775
X1.475Y-4.675
X1.975Y-7.025
X2.225Y-6.925
X5.725Y-4.775
X5.975Y-4.675
X4.6Y-5.525
X4.85Y-5.425
X8.5375Y-6.275
X8.7875Y-6.175
X4.975Y-4.775
X5.225Y-4.675
X10.225Y-4.775
X10.475Y-4.675
X0.475Y-7.025
X0.725Y-6.925
X1.225Y-7.025
X1.475Y-6.925
X0.475Y-4.775
X0.725Y-4.675
X8.725Y-4.775
X8.975Y-4.675
X0.475Y-4.025
X0.725Y-3.925
X3.2875Y-6.275
X3.5375Y-6.175
X4.975Y-7.775
X5.225Y-7.675
X5.5375Y-6.275
X5.7875Y-6.175
X2.725Y-4.025
X2.975Y-3.925
X10.225Y-7.775
X10.475Y-7.675
X1.7875Y-6.275
X2.0375Y-6.175
X1.0375Y-6.275
X1.2875Y-6.175
X6.475Y-7.025
X6.725Y-6.925
X3.85Y-5.525
X4.1Y-5.425
X5.725Y-7.025
X5.975Y-6.925
X9.475Y-7.025
X9.725Y-6.925
T10
X0.7123Y-0.45
X0.9879Y-0.45
T11
X9.25Y-0.6
T12
X3.7547Y-0.5531
X4.3453Y-0.5531
T13
X1.261Y-0.6681
X1.45Y-0.55
T14
X9.05Y-0.6
X9.25Y-0.4
X9.45Y-0.6
T15
X10.55Y-3.6
X2.45Y-8.05
X8.15Y-8.05
X5.5Y-4.35
X0.45Y-0.45
X0.45Y-3.6
X10.55Y-0.45
T16
X7.2581Y-0.625
X8.2419Y-0.625
T17
X1.45Y-0.7941
T18
X5.3Y-5.625
X5.7Y-5.625
X7.175Y-7.125
X7.575Y-7.125
X2.3Y-5.625
X2.7Y-5.625
X6.8Y-5.625
X7.2Y-5.625
X9.425Y-4.875
X9.825Y-4.875
X1.925Y-4.125
X2.325Y-4.125
X9.425Y-7.875
X9.825Y-7.875
X1.4625Y-7.875
X1.8625Y-7.875
X2.675Y-4.875
X3.075Y-4.875
X9.9875Y-5.625
X10.3875Y-5.625
X2.4875Y-6.375
X2.8875Y-6.375
X3.9875Y-6.375
X4.3875Y-6.375
X7.175Y-4.875
X7.575Y-4.875
X10.175Y-7.125
X10.575Y-7.125
X4.175Y-7.125
X4.575Y-7.125
X3.425Y-4.125
X3.825Y-4.125
X7.55Y-5.625
X7.95Y-5.625
X7.7375Y-6.375
X8.1375Y-6.375
X7.925Y-4.875
X8.325Y-4.875
X3.425Y-7.125
X3.825Y-7.125
X6.9875Y-6.375
X7.3875Y-6.375
X9.425Y-4.125
X9.825Y-4.125
X1.175Y-4.125
X1.575Y-4.125
X6.2375Y-6.375
X6.6375Y-6.375
X8.3Y-5.625
X8.7Y-5.625
X4.925Y-7.125
X5.325Y-7.125
X8.675Y-7.125
X9.075Y-7.125
X1.175Y-4.875
X1.575Y-4.875
X1.925Y-7.125
X2.325Y-7.125
X5.675Y-4.875
X6.075Y-4.875
X4.55Y-5.625
X4.95Y-5.625
X8.4875Y-6.375
X8.8875Y-6.375
X4.925Y-4.875
X5.325Y-4.875
X10.175Y-4.875
X10.575Y-4.875
X0.425Y-7.125
X0.825Y-7.125
X1.175Y-7.125
X1.575Y-7.125
X0.425Y-4.875
X0.825Y-4.875
X8.675Y-4.875
X9.075Y-4.875
X0.425Y-4.125
X0.825Y-4.125
X3.2375Y-6.375
X3.6375Y-6.375
X4.925Y-7.875
X5.325Y-7.875
X5.4875Y-6.375
X5.8875Y-6.375
X2.675Y-4.125
X3.075Y-4.125
X10.175Y-7.875
X10.575Y-7.875
X1.7375Y-6.375
X2.1375Y-6.375
X0.9875Y-6.375
X1.3875Y-6.375
X6.425Y-7.125
X6.825Y-7.125
X3.8Y-5.625
X4.2Y-5.625
X5.675Y-7.125
X6.075Y-7.125
X9.425Y-7.125
X9.825Y-7.125
X9.05Y-5.625
X9.45Y-5.625
X9.7062Y-6.375
X10.1062Y-6.375
X0.525Y-7.875
X0.925Y-7.875
X4.175Y-4.875
X4.575Y-4.875
X6.05Y-5.625
X6.45Y-5.625
X3.05Y-5.625
X3.45Y-5.625
X3.425Y-4.875
X3.825Y-4.875
X0.8Y-5.625
X1.2Y-5.625
X7.925Y-7.125
X8.325Y-7.125
X8.675Y-7.875
X9.075Y-7.875
X10.175Y-4.125
X10.575Y-4.125
X4.7375Y-6.375
X5.1375Y-6.375
X6.425Y-4.875
X6.825Y-4.875
X1.55Y-5.625
X1.95Y-5.625
X2.675Y-7.125
X3.075Y-7.125
X1.925Y-4.875
X2.325Y-4.875
T19
X3.155Y-8.15
X7.095Y-8.15
X9.4362Y-6.1
X10.3763Y-6.1
T20
X9.625Y-4.875
X2.125Y-4.125
X9.625Y-7.875
X1.6625Y-7.875
X2.875Y-4.875
X10.1875Y-5.625
X2.6875Y-6.375
X4.1875Y-6.375
X7.375Y-4.875
X10.375Y-7.125
X4.375Y-7.125
X3.625Y-4.125
X7.75Y-5.625
X7.9375Y-6.375
X8.125Y-4.875
X3.625Y-7.125
X7.1875Y-6.375
X9.625Y-4.125
X1.375Y-4.125
X6.4375Y-6.375
X8.5Y-5.625
X5.125Y-7.125
X8.875Y-7.125
X1.375Y-4.875
X2.125Y-7.125
X5.875Y-4.875
X4.75Y-5.625
X8.6875Y-6.375
X5.125Y-4.875
X10.375Y-4.875
X0.625Y-7.125
X1.375Y-7.125
X0.625Y-4.875
X8.875Y-4.875
X0.625Y-4.125
X3.4375Y-6.375
X3.155Y-7.55
X5.125Y-7.875
X7.095Y-7.55
X5.6875Y-6.375
X2.875Y-4.125
X10.375Y-7.875
X1.9375Y-6.375
X1.1875Y-6.375
X6.625Y-7.125
X4.0Y-5.625
X5.875Y-7.125
X9.625Y-7.125
X9.25Y-5.625
X9.4362Y-6.7
X9.9062Y-6.375
X10.3763Y-6.7
X0.725Y-7.875
X4.375Y-4.875
X6.25Y-5.625
X3.25Y-5.625
X3.625Y-4.875
X1.0Y-5.625
X8.125Y-7.125
X8.875Y-7.875
X10.375Y-4.125
X4.9375Y-6.375
X6.625Y-4.875
X1.75Y-5.625
X2.875Y-7.125
X2.125Y-4.875
X5.5Y-5.625
X7.375Y-7.125
X2.5Y-5.625
X7.0Y-5.625
T0
M30
