G04 #@! TF.GenerationSoftware,KiCad,Pcbnew,(5.1.0)-1*
G04 #@! TF.CreationDate,2020-03-05T11:17:41-08:00*
G04 #@! TF.ProjectId,Radio-86RK,52616469-6f2d-4383-9652-4b2e6b696361,rev?*
G04 #@! TF.SameCoordinates,Original*
G04 #@! TF.FileFunction,Soldermask,Top*
G04 #@! TF.FilePolarity,Negative*
%FSLAX46Y46*%
G04 Gerber Fmt 4.6, Leading zero omitted, Abs format (unit mm)*
G04 Created by KiCad (PCBNEW (5.1.0)-1) date 2020-03-05 11:17:41*
%MOMM*%
%LPD*%
G04 APERTURE LIST*
%ADD10C,1.797000*%
%ADD11R,1.797000X1.797000*%
%ADD12C,1.890980*%
%ADD13R,1.890980X1.890980*%
%ADD14C,2.686000*%
%ADD15C,4.464000*%
%ADD16C,3.371800*%
%ADD17C,2.700000*%
%ADD18C,4.400000*%
%ADD19R,1.924000X1.924000*%
%ADD20C,1.924000*%
%ADD21C,2.899360*%
%ADD22C,2.200860*%
%ADD23C,2.178000*%
%ADD24R,2.178000X2.178000*%
%ADD25C,4.900000*%
%ADD26R,1.800000X1.800000*%
%ADD27C,1.800000*%
%ADD28C,4.448760*%
G04 APERTURE END LIST*
D10*
X11430000Y-85090000D03*
X16510000Y-85090000D03*
D11*
X132080000Y-85090000D03*
D10*
X132080000Y-82550000D03*
X132080000Y-80010000D03*
X132080000Y-77470000D03*
X132080000Y-74930000D03*
X132080000Y-72390000D03*
X132080000Y-69850000D03*
X132080000Y-67310000D03*
X132080000Y-64770000D03*
X132080000Y-62230000D03*
X132080000Y-59690000D03*
X132080000Y-57150000D03*
X132080000Y-54610000D03*
X132080000Y-52070000D03*
X132080000Y-49530000D03*
X132080000Y-46990000D03*
X132080000Y-44450000D03*
X132080000Y-41910000D03*
X132080000Y-39370000D03*
X132080000Y-36830000D03*
X116840000Y-36830000D03*
X116840000Y-39370000D03*
X116840000Y-41910000D03*
X116840000Y-44450000D03*
X116840000Y-46990000D03*
X116840000Y-49530000D03*
X116840000Y-52070000D03*
X116840000Y-54610000D03*
X116840000Y-57150000D03*
X116840000Y-59690000D03*
X116840000Y-62230000D03*
X116840000Y-64770000D03*
X116840000Y-67310000D03*
X116840000Y-69850000D03*
X116840000Y-72390000D03*
X116840000Y-74930000D03*
X116840000Y-77470000D03*
X116840000Y-80010000D03*
X116840000Y-82550000D03*
X116840000Y-85090000D03*
D11*
X127000000Y-29210000D03*
D10*
X134620000Y-29210000D03*
X107950000Y-31750000D03*
X113030000Y-31750000D03*
X124460000Y-31750000D03*
X116840000Y-31750000D03*
X128270000Y-26670000D03*
X133350000Y-26670000D03*
D11*
X170180000Y-41910000D03*
D10*
X170180000Y-39370000D03*
X170180000Y-36830000D03*
X170180000Y-34290000D03*
X170180000Y-31750000D03*
X170180000Y-29210000D03*
X170180000Y-26670000D03*
X162560000Y-26670000D03*
X162560000Y-29210000D03*
X162560000Y-31750000D03*
X162560000Y-34290000D03*
X162560000Y-36830000D03*
X162560000Y-39370000D03*
X162560000Y-41910000D03*
D11*
X185420000Y-41910000D03*
D10*
X185420000Y-39370000D03*
X185420000Y-36830000D03*
X185420000Y-34290000D03*
X185420000Y-31750000D03*
X185420000Y-29210000D03*
X185420000Y-26670000D03*
X185420000Y-24130000D03*
X177800000Y-24130000D03*
X177800000Y-26670000D03*
X177800000Y-29210000D03*
X177800000Y-31750000D03*
X177800000Y-34290000D03*
X177800000Y-36830000D03*
X177800000Y-39370000D03*
X177800000Y-41910000D03*
D11*
X200660000Y-31750000D03*
D10*
X200660000Y-29210000D03*
X200660000Y-26670000D03*
X200660000Y-24130000D03*
X193040000Y-24130000D03*
X193040000Y-26670000D03*
X193040000Y-29210000D03*
X193040000Y-31750000D03*
X193040000Y-49530000D03*
X193040000Y-46990000D03*
X193040000Y-44450000D03*
X193040000Y-41910000D03*
X200660000Y-41910000D03*
X200660000Y-44450000D03*
X200660000Y-46990000D03*
D11*
X200660000Y-49530000D03*
D12*
X34270000Y-27940000D03*
D13*
X31770000Y-27940000D03*
X22880000Y-27940000D03*
D12*
X25380000Y-27940000D03*
D13*
X60980000Y-10160000D03*
D12*
X63480000Y-10160000D03*
D14*
X151765000Y-118745000D03*
X145415000Y-121285000D03*
D15*
X139700000Y-110490000D03*
X11430000Y-91440000D03*
X267970000Y-91440000D03*
D10*
X162560000Y-85090000D03*
X162560000Y-82550000D03*
X162560000Y-80010000D03*
X162560000Y-77470000D03*
X162560000Y-74930000D03*
X162560000Y-72390000D03*
X162560000Y-69850000D03*
X162560000Y-67310000D03*
X162560000Y-64770000D03*
X162560000Y-62230000D03*
X162560000Y-59690000D03*
X162560000Y-57150000D03*
X162560000Y-54610000D03*
X162560000Y-52070000D03*
X177800000Y-52070000D03*
X177800000Y-54610000D03*
X177800000Y-57150000D03*
X177800000Y-59690000D03*
X177800000Y-62230000D03*
X177800000Y-64770000D03*
X177800000Y-67310000D03*
X177800000Y-69850000D03*
X177800000Y-72390000D03*
X177800000Y-74930000D03*
X177800000Y-77470000D03*
X177800000Y-80010000D03*
X177800000Y-82550000D03*
D11*
X177800000Y-85090000D03*
D10*
X139700000Y-85090000D03*
X139700000Y-82550000D03*
X139700000Y-80010000D03*
X139700000Y-77470000D03*
X139700000Y-74930000D03*
X139700000Y-72390000D03*
X139700000Y-69850000D03*
X139700000Y-67310000D03*
X139700000Y-64770000D03*
X139700000Y-62230000D03*
X139700000Y-59690000D03*
X139700000Y-57150000D03*
X139700000Y-54610000D03*
X139700000Y-52070000D03*
X139700000Y-49530000D03*
X139700000Y-46990000D03*
X139700000Y-44450000D03*
X139700000Y-41910000D03*
X139700000Y-39370000D03*
X139700000Y-36830000D03*
X154940000Y-36830000D03*
X154940000Y-39370000D03*
X154940000Y-41910000D03*
X154940000Y-44450000D03*
X154940000Y-46990000D03*
X154940000Y-49530000D03*
X154940000Y-52070000D03*
X154940000Y-54610000D03*
X154940000Y-57150000D03*
X154940000Y-59690000D03*
X154940000Y-62230000D03*
X154940000Y-64770000D03*
X154940000Y-67310000D03*
X154940000Y-69850000D03*
X154940000Y-72390000D03*
X154940000Y-74930000D03*
X154940000Y-77470000D03*
X154940000Y-80010000D03*
X154940000Y-82550000D03*
D11*
X154940000Y-85090000D03*
D10*
X78740000Y-41910000D03*
X78740000Y-39370000D03*
X78740000Y-36830000D03*
X78740000Y-34290000D03*
X78740000Y-31750000D03*
X78740000Y-29210000D03*
X78740000Y-26670000D03*
X78740000Y-24130000D03*
X86360000Y-24130000D03*
X86360000Y-26670000D03*
X86360000Y-29210000D03*
X86360000Y-31750000D03*
X86360000Y-34290000D03*
X86360000Y-36830000D03*
X86360000Y-39370000D03*
D11*
X86360000Y-41910000D03*
D10*
X185420000Y-85090000D03*
X185420000Y-82550000D03*
X185420000Y-80010000D03*
X185420000Y-77470000D03*
X185420000Y-74930000D03*
X185420000Y-72390000D03*
X185420000Y-69850000D03*
X185420000Y-67310000D03*
X185420000Y-64770000D03*
X185420000Y-62230000D03*
X185420000Y-59690000D03*
X185420000Y-57150000D03*
X200660000Y-57150000D03*
X200660000Y-59690000D03*
X200660000Y-62230000D03*
X200660000Y-64770000D03*
X200660000Y-67310000D03*
X200660000Y-69850000D03*
X200660000Y-72390000D03*
X200660000Y-74930000D03*
X200660000Y-77470000D03*
X200660000Y-80010000D03*
X200660000Y-82550000D03*
D11*
X200660000Y-85090000D03*
D10*
X63500000Y-41910000D03*
X63500000Y-39370000D03*
X63500000Y-36830000D03*
X63500000Y-34290000D03*
X63500000Y-31750000D03*
X63500000Y-29210000D03*
X63500000Y-26670000D03*
X71120000Y-26670000D03*
X71120000Y-29210000D03*
X71120000Y-31750000D03*
X71120000Y-34290000D03*
X71120000Y-36830000D03*
X71120000Y-39370000D03*
D11*
X71120000Y-41910000D03*
X63500000Y-85090000D03*
D10*
X63500000Y-82550000D03*
X63500000Y-80010000D03*
X63500000Y-77470000D03*
X63500000Y-74930000D03*
X63500000Y-72390000D03*
X63500000Y-69850000D03*
X63500000Y-67310000D03*
X63500000Y-64770000D03*
X63500000Y-62230000D03*
X63500000Y-59690000D03*
X63500000Y-57150000D03*
X63500000Y-54610000D03*
X63500000Y-52070000D03*
X48260000Y-52070000D03*
X48260000Y-54610000D03*
X48260000Y-57150000D03*
X48260000Y-59690000D03*
X48260000Y-62230000D03*
X48260000Y-64770000D03*
X48260000Y-67310000D03*
X48260000Y-69850000D03*
X48260000Y-72390000D03*
X48260000Y-74930000D03*
X48260000Y-77470000D03*
X48260000Y-80010000D03*
X48260000Y-82550000D03*
X48260000Y-85090000D03*
D11*
X109220000Y-85090000D03*
D10*
X109220000Y-82550000D03*
X109220000Y-80010000D03*
X109220000Y-77470000D03*
X109220000Y-74930000D03*
X109220000Y-72390000D03*
X109220000Y-69850000D03*
X109220000Y-67310000D03*
X109220000Y-64770000D03*
X109220000Y-62230000D03*
X109220000Y-59690000D03*
X109220000Y-57150000D03*
X109220000Y-54610000D03*
X109220000Y-52070000D03*
X109220000Y-49530000D03*
X109220000Y-46990000D03*
X109220000Y-44450000D03*
X109220000Y-41910000D03*
X109220000Y-39370000D03*
X109220000Y-36830000D03*
X93980000Y-36830000D03*
X93980000Y-39370000D03*
X93980000Y-41910000D03*
X93980000Y-44450000D03*
X93980000Y-46990000D03*
X93980000Y-49530000D03*
X93980000Y-52070000D03*
X93980000Y-54610000D03*
X93980000Y-57150000D03*
X93980000Y-59690000D03*
X93980000Y-62230000D03*
X93980000Y-64770000D03*
X93980000Y-67310000D03*
X93980000Y-69850000D03*
X93980000Y-72390000D03*
X93980000Y-74930000D03*
X93980000Y-77470000D03*
X93980000Y-80010000D03*
X93980000Y-82550000D03*
X93980000Y-85090000D03*
D11*
X40640000Y-85090000D03*
D10*
X40640000Y-82550000D03*
X40640000Y-80010000D03*
X40640000Y-77470000D03*
X40640000Y-74930000D03*
X40640000Y-72390000D03*
X40640000Y-69850000D03*
X40640000Y-67310000D03*
X40640000Y-64770000D03*
X40640000Y-62230000D03*
X40640000Y-59690000D03*
X40640000Y-57150000D03*
X40640000Y-54610000D03*
X40640000Y-52070000D03*
X40640000Y-49530000D03*
X40640000Y-46990000D03*
X40640000Y-44450000D03*
X40640000Y-41910000D03*
X40640000Y-39370000D03*
X40640000Y-36830000D03*
X25400000Y-36830000D03*
X25400000Y-39370000D03*
X25400000Y-41910000D03*
X25400000Y-44450000D03*
X25400000Y-46990000D03*
X25400000Y-49530000D03*
X25400000Y-52070000D03*
X25400000Y-54610000D03*
X25400000Y-57150000D03*
X25400000Y-59690000D03*
X25400000Y-62230000D03*
X25400000Y-64770000D03*
X25400000Y-67310000D03*
X25400000Y-69850000D03*
X25400000Y-72390000D03*
X25400000Y-74930000D03*
X25400000Y-77470000D03*
X25400000Y-80010000D03*
X25400000Y-82550000D03*
X25400000Y-85090000D03*
D11*
X238760000Y-41910000D03*
D10*
X238760000Y-39370000D03*
X238760000Y-36830000D03*
X238760000Y-34290000D03*
X238760000Y-31750000D03*
X238760000Y-29210000D03*
X238760000Y-26670000D03*
X231140000Y-26670000D03*
X231140000Y-29210000D03*
X231140000Y-31750000D03*
X231140000Y-34290000D03*
X231140000Y-36830000D03*
X231140000Y-39370000D03*
X231140000Y-41910000D03*
D14*
X89852500Y-156845000D03*
X83502500Y-159385000D03*
D10*
X208280000Y-85090000D03*
X208280000Y-82550000D03*
X208280000Y-80010000D03*
X208280000Y-77470000D03*
X208280000Y-74930000D03*
X208280000Y-72390000D03*
X208280000Y-69850000D03*
X208280000Y-67310000D03*
X208280000Y-64770000D03*
X208280000Y-62230000D03*
X208280000Y-59690000D03*
X208280000Y-57150000D03*
X208280000Y-54610000D03*
X208280000Y-52070000D03*
X208280000Y-49530000D03*
X208280000Y-46990000D03*
X208280000Y-44450000D03*
X208280000Y-41910000D03*
X208280000Y-39370000D03*
X208280000Y-36830000D03*
X223520000Y-36830000D03*
X223520000Y-39370000D03*
X223520000Y-41910000D03*
X223520000Y-44450000D03*
X223520000Y-46990000D03*
X223520000Y-49530000D03*
X223520000Y-52070000D03*
X223520000Y-54610000D03*
X223520000Y-57150000D03*
X223520000Y-59690000D03*
X223520000Y-62230000D03*
X223520000Y-64770000D03*
X223520000Y-67310000D03*
X223520000Y-69850000D03*
X223520000Y-72390000D03*
X223520000Y-74930000D03*
X223520000Y-77470000D03*
X223520000Y-80010000D03*
X223520000Y-82550000D03*
D11*
X223520000Y-85090000D03*
D14*
X75565000Y-99695000D03*
X69215000Y-102235000D03*
D10*
X134620000Y-101600000D03*
D11*
X127000000Y-101600000D03*
X109220000Y-101600000D03*
D10*
X116840000Y-101600000D03*
D14*
X247015000Y-99695000D03*
X240665000Y-102235000D03*
X88265000Y-102235000D03*
X94615000Y-99695000D03*
X221615000Y-197485000D03*
X227965000Y-194945000D03*
D10*
X116840000Y-109220000D03*
D11*
X109220000Y-109220000D03*
X109220000Y-106680000D03*
D10*
X116840000Y-106680000D03*
X116840000Y-104140000D03*
D11*
X109220000Y-104140000D03*
D14*
X231140000Y-140335000D03*
X237490000Y-137795000D03*
X208915000Y-118745000D03*
X202565000Y-121285000D03*
X37465000Y-118745000D03*
X31115000Y-121285000D03*
X56515000Y-118745000D03*
X50165000Y-121285000D03*
X75565000Y-118745000D03*
X69215000Y-121285000D03*
X94615000Y-118745000D03*
X88265000Y-121285000D03*
X113665000Y-118745000D03*
X107315000Y-121285000D03*
X132715000Y-118745000D03*
X126365000Y-121285000D03*
X170815000Y-118745000D03*
X164465000Y-121285000D03*
X189865000Y-118745000D03*
X183515000Y-121285000D03*
X227965000Y-118745000D03*
X221615000Y-121285000D03*
X223202500Y-156845000D03*
X216852500Y-159385000D03*
X18415000Y-118745000D03*
X12065000Y-121285000D03*
X170815000Y-175895000D03*
X164465000Y-178435000D03*
X189865000Y-175895000D03*
X183515000Y-178435000D03*
X208915000Y-175895000D03*
X202565000Y-178435000D03*
X51752500Y-156845000D03*
X45402500Y-159385000D03*
X113665000Y-175895000D03*
X107315000Y-178435000D03*
X75565000Y-175895000D03*
X69215000Y-178435000D03*
X85090000Y-137795000D03*
X78740000Y-140335000D03*
X108902500Y-156845000D03*
X102552500Y-159385000D03*
X127952500Y-156845000D03*
X121602500Y-159385000D03*
X147002500Y-156845000D03*
X140652500Y-159385000D03*
X180340000Y-137795000D03*
X173990000Y-140335000D03*
X166052500Y-156845000D03*
X159702500Y-159385000D03*
X185102500Y-156845000D03*
X178752500Y-159385000D03*
X204152500Y-156845000D03*
X197802500Y-159385000D03*
X145415000Y-178435000D03*
X151765000Y-175895000D03*
X132715000Y-175895000D03*
X126365000Y-178435000D03*
X199390000Y-137795000D03*
X193040000Y-140335000D03*
X218440000Y-137795000D03*
X212090000Y-140335000D03*
X46990000Y-137795000D03*
X40640000Y-140335000D03*
X104140000Y-137795000D03*
X97790000Y-140335000D03*
X70802500Y-156845000D03*
X64452500Y-159385000D03*
X123190000Y-137795000D03*
X116840000Y-140335000D03*
X161290000Y-137795000D03*
X154940000Y-140335000D03*
X94615000Y-175895000D03*
X88265000Y-178435000D03*
X66040000Y-137795000D03*
X59690000Y-140335000D03*
X142240000Y-137795000D03*
X135890000Y-140335000D03*
X37465000Y-175895000D03*
X31115000Y-178435000D03*
X27940000Y-137795000D03*
X21590000Y-140335000D03*
X32702500Y-156845000D03*
X26352500Y-159385000D03*
X259715000Y-178435000D03*
X266065000Y-175895000D03*
X266065000Y-194945000D03*
X259715000Y-197485000D03*
X132715000Y-194945000D03*
X126365000Y-197485000D03*
X266065000Y-99695000D03*
X259715000Y-102235000D03*
X37465000Y-99695000D03*
X31115000Y-102235000D03*
X56515000Y-99695000D03*
X50165000Y-102235000D03*
X18415000Y-99695000D03*
X12065000Y-102235000D03*
X227965000Y-175895000D03*
X221615000Y-178435000D03*
D10*
X134620000Y-104140000D03*
D11*
X127000000Y-104140000D03*
D10*
X134620000Y-106680000D03*
D11*
X127000000Y-106680000D03*
D10*
X134620000Y-109220000D03*
D11*
X127000000Y-109220000D03*
D15*
X11430000Y-11430000D03*
X267970000Y-11430000D03*
X62230000Y-204470000D03*
X207010000Y-204470000D03*
D10*
X218440000Y-21590000D03*
X226060000Y-21590000D03*
X226060000Y-19050000D03*
X218440000Y-19050000D03*
D14*
X56515000Y-175895000D03*
X50165000Y-178435000D03*
X254158750Y-156845000D03*
X247808750Y-159385000D03*
X240665000Y-178435000D03*
X247015000Y-175895000D03*
X247015000Y-194945000D03*
X240665000Y-197485000D03*
X261302500Y-137795000D03*
X254952500Y-140335000D03*
X266065000Y-118745000D03*
X259715000Y-121285000D03*
X247015000Y-118745000D03*
X240665000Y-121285000D03*
X14605000Y-197485000D03*
X20955000Y-194945000D03*
X44767500Y-194945000D03*
X38417500Y-197485000D03*
X18415000Y-175895000D03*
X12065000Y-178435000D03*
D10*
X43180000Y-41910000D03*
X43180000Y-36830000D03*
X11430000Y-74930000D03*
X16510000Y-74930000D03*
X172720000Y-90170000D03*
X167640000Y-90170000D03*
X195580000Y-90170000D03*
X190500000Y-90170000D03*
X121920000Y-90170000D03*
X127000000Y-90170000D03*
X149860000Y-90170000D03*
X144780000Y-90170000D03*
X104140000Y-90170000D03*
X99060000Y-90170000D03*
X218440000Y-90170000D03*
X213360000Y-90170000D03*
X53340000Y-90170000D03*
X58420000Y-90170000D03*
X76200000Y-90170000D03*
X81280000Y-90170000D03*
X241300000Y-90170000D03*
X236220000Y-90170000D03*
X78740000Y-46990000D03*
X83820000Y-46990000D03*
X261620000Y-90170000D03*
X256540000Y-90170000D03*
X53340000Y-46990000D03*
X48260000Y-46990000D03*
X15240000Y-21590000D03*
X10160000Y-21590000D03*
X246380000Y-46990000D03*
X251460000Y-46990000D03*
X236220000Y-46990000D03*
X231140000Y-46990000D03*
X63500000Y-46990000D03*
X68580000Y-46990000D03*
X266700000Y-46990000D03*
X261620000Y-46990000D03*
X162560000Y-46990000D03*
X167640000Y-46990000D03*
X121920000Y-26670000D03*
X116840000Y-26670000D03*
X177800000Y-46990000D03*
X182880000Y-46990000D03*
X193040000Y-53340000D03*
X198120000Y-53340000D03*
X193040000Y-35560000D03*
X198120000Y-35560000D03*
X16510000Y-46990000D03*
X11430000Y-46990000D03*
X198120000Y-38100000D03*
X193040000Y-38100000D03*
X198120000Y-20320000D03*
X193040000Y-20320000D03*
X43180000Y-59690000D03*
X43180000Y-54610000D03*
X116840000Y-8890000D03*
X121920000Y-8890000D03*
X99060000Y-31750000D03*
X104140000Y-31750000D03*
D13*
X40660000Y-27940000D03*
D12*
X43160000Y-27940000D03*
X223500000Y-11430000D03*
D13*
X221000000Y-11430000D03*
D10*
X24130000Y-16510000D03*
X19050000Y-16510000D03*
X104140000Y-29210000D03*
X99060000Y-29210000D03*
X219710000Y-16510000D03*
X224790000Y-16510000D03*
X90170000Y-31750000D03*
X95250000Y-31750000D03*
X205105000Y-104775000D03*
X207645000Y-104775000D03*
X226695000Y-104775000D03*
X224155000Y-104775000D03*
D15*
X234950000Y-10160000D03*
X240030000Y-15240000D03*
X229870000Y-15240000D03*
D16*
X234950000Y-15240000D03*
D17*
X102870000Y-19050000D03*
X97870000Y-19050000D03*
X95370000Y-21550000D03*
X102870000Y-24050000D03*
X105370000Y-21550000D03*
X107870000Y-19050000D03*
D18*
X95370000Y-14050000D03*
D17*
X100370000Y-21550000D03*
X110370000Y-21550000D03*
X100370000Y-9050000D03*
D18*
X110370000Y-14050000D03*
D17*
X105370000Y-9050000D03*
D19*
X163830000Y-11430000D03*
D20*
X163830000Y-13970000D03*
X161290000Y-11430000D03*
X161290000Y-13970000D03*
X158750000Y-11430000D03*
X158750000Y-13970000D03*
X156210000Y-11430000D03*
X156210000Y-13970000D03*
X153670000Y-11430000D03*
X153670000Y-13970000D03*
X151130000Y-11430000D03*
X151130000Y-13970000D03*
X148590000Y-11430000D03*
X148590000Y-13970000D03*
X146050000Y-11430000D03*
X146050000Y-13970000D03*
X143510000Y-11430000D03*
X143510000Y-13970000D03*
X140970000Y-11430000D03*
X140970000Y-13970000D03*
X138430000Y-11430000D03*
X138430000Y-13970000D03*
X135890000Y-11430000D03*
X135890000Y-13970000D03*
X133350000Y-11430000D03*
X133350000Y-13970000D03*
D11*
X209550000Y-30480000D03*
D10*
X212090000Y-30480000D03*
X214630000Y-30480000D03*
X251460000Y-8890000D03*
X243840000Y-8890000D03*
X116840000Y-29210000D03*
X124460000Y-29210000D03*
X226060000Y-26670000D03*
X218440000Y-26670000D03*
X22860000Y-67310000D03*
X22860000Y-74930000D03*
X134620000Y-31750000D03*
X127000000Y-31750000D03*
X218440000Y-29210000D03*
X226060000Y-29210000D03*
X226060000Y-31750000D03*
X218440000Y-31750000D03*
X254000000Y-21590000D03*
X246380000Y-21590000D03*
X219710000Y-102870000D03*
X212090000Y-102870000D03*
X212090000Y-105410000D03*
X219710000Y-105410000D03*
X96520000Y-29210000D03*
X88900000Y-29210000D03*
X114300000Y-29210000D03*
X106680000Y-29210000D03*
D11*
X251460000Y-80010000D03*
D10*
X251460000Y-77470000D03*
X251460000Y-74930000D03*
X251460000Y-72390000D03*
X251460000Y-69850000D03*
X251460000Y-67310000D03*
X251460000Y-64770000D03*
X251460000Y-62230000D03*
X251460000Y-59690000D03*
X251460000Y-57150000D03*
X261061200Y-13970000D03*
X254558800Y-13970000D03*
D21*
X25092660Y-11430000D03*
X18092420Y-11430000D03*
D22*
X23842980Y-8930640D03*
X19342100Y-8930640D03*
D11*
X86360000Y-85090000D03*
D10*
X86360000Y-82550000D03*
X86360000Y-80010000D03*
X86360000Y-77470000D03*
X86360000Y-74930000D03*
X86360000Y-72390000D03*
X86360000Y-69850000D03*
X86360000Y-67310000D03*
X86360000Y-64770000D03*
X86360000Y-62230000D03*
X86360000Y-59690000D03*
X86360000Y-57150000D03*
X71120000Y-57150000D03*
X71120000Y-59690000D03*
X71120000Y-62230000D03*
X71120000Y-64770000D03*
X71120000Y-67310000D03*
X71120000Y-69850000D03*
X71120000Y-72390000D03*
X71120000Y-74930000D03*
X71120000Y-77470000D03*
X71120000Y-80010000D03*
X71120000Y-82550000D03*
X71120000Y-85090000D03*
X231140000Y-85090000D03*
X231140000Y-82550000D03*
X231140000Y-80010000D03*
X231140000Y-77470000D03*
X231140000Y-74930000D03*
X231140000Y-72390000D03*
X231140000Y-69850000D03*
X231140000Y-67310000D03*
X231140000Y-64770000D03*
X231140000Y-62230000D03*
X231140000Y-59690000D03*
X231140000Y-57150000D03*
X246380000Y-57150000D03*
X246380000Y-59690000D03*
X246380000Y-62230000D03*
X246380000Y-64770000D03*
X246380000Y-67310000D03*
X246380000Y-69850000D03*
X246380000Y-72390000D03*
X246380000Y-74930000D03*
X246380000Y-77470000D03*
X246380000Y-80010000D03*
X246380000Y-82550000D03*
D11*
X246380000Y-85090000D03*
X269240000Y-85090000D03*
D10*
X269240000Y-82550000D03*
X269240000Y-80010000D03*
X269240000Y-77470000D03*
X269240000Y-74930000D03*
X269240000Y-72390000D03*
X269240000Y-69850000D03*
X269240000Y-67310000D03*
X269240000Y-64770000D03*
X269240000Y-62230000D03*
X269240000Y-59690000D03*
X269240000Y-57150000D03*
X254000000Y-57150000D03*
X254000000Y-59690000D03*
X254000000Y-62230000D03*
X254000000Y-64770000D03*
X254000000Y-67310000D03*
X254000000Y-69850000D03*
X254000000Y-72390000D03*
X254000000Y-74930000D03*
X254000000Y-77470000D03*
X254000000Y-80010000D03*
X254000000Y-82550000D03*
X254000000Y-85090000D03*
D11*
X17780000Y-41910000D03*
D10*
X17780000Y-39370000D03*
X17780000Y-36830000D03*
X17780000Y-34290000D03*
X17780000Y-31750000D03*
X17780000Y-29210000D03*
X17780000Y-26670000D03*
X10160000Y-26670000D03*
X10160000Y-29210000D03*
X10160000Y-31750000D03*
X10160000Y-34290000D03*
X10160000Y-36830000D03*
X10160000Y-39370000D03*
X10160000Y-41910000D03*
X246380000Y-41910000D03*
X246380000Y-39370000D03*
X246380000Y-36830000D03*
X246380000Y-34290000D03*
X246380000Y-31750000D03*
X246380000Y-29210000D03*
X246380000Y-26670000D03*
X254000000Y-26670000D03*
X254000000Y-29210000D03*
X254000000Y-31750000D03*
X254000000Y-34290000D03*
X254000000Y-36830000D03*
X254000000Y-39370000D03*
D11*
X254000000Y-41910000D03*
X269240000Y-41910000D03*
D10*
X269240000Y-39370000D03*
X269240000Y-36830000D03*
X269240000Y-34290000D03*
X269240000Y-31750000D03*
X269240000Y-29210000D03*
X269240000Y-26670000D03*
X261620000Y-26670000D03*
X261620000Y-29210000D03*
X261620000Y-31750000D03*
X261620000Y-34290000D03*
X261620000Y-36830000D03*
X261620000Y-39370000D03*
X261620000Y-41910000D03*
D11*
X124460000Y-21590000D03*
D10*
X124460000Y-19050000D03*
X124460000Y-16510000D03*
X124460000Y-13970000D03*
X116840000Y-13970000D03*
X116840000Y-16510000D03*
X116840000Y-19050000D03*
X116840000Y-21590000D03*
D23*
X50800000Y-8890000D03*
X53340000Y-8890000D03*
D24*
X48260000Y-8890000D03*
D10*
X16410940Y-80010000D03*
X11529060Y-80010000D03*
X22860000Y-54610000D03*
X22860000Y-59690000D03*
D11*
X134620000Y-49530000D03*
D10*
X134620000Y-46990000D03*
X134620000Y-44450000D03*
X134620000Y-41910000D03*
X134620000Y-39370000D03*
X134620000Y-36830000D03*
D11*
X114300000Y-49530000D03*
D10*
X114300000Y-46990000D03*
X114300000Y-44450000D03*
X114300000Y-41910000D03*
X114300000Y-39370000D03*
X114300000Y-36830000D03*
X134620000Y-52070000D03*
X134620000Y-54610000D03*
X134620000Y-57150000D03*
X134620000Y-59690000D03*
X134620000Y-62230000D03*
D11*
X134620000Y-64770000D03*
X55880000Y-41910000D03*
D10*
X55880000Y-39370000D03*
X55880000Y-36830000D03*
X55880000Y-34290000D03*
X55880000Y-31750000D03*
X55880000Y-29210000D03*
X55880000Y-26670000D03*
X55880000Y-24130000D03*
X55880000Y-21590000D03*
X55880000Y-19050000D03*
X48260000Y-19050000D03*
X48260000Y-21590000D03*
X48260000Y-24130000D03*
X48260000Y-26670000D03*
X48260000Y-29210000D03*
X48260000Y-31750000D03*
X48260000Y-34290000D03*
X48260000Y-36830000D03*
X48260000Y-39370000D03*
X48260000Y-41910000D03*
X250190000Y-13970000D03*
X245110000Y-13970000D03*
D11*
X245110000Y-17780000D03*
D10*
X247650000Y-17780000D03*
X250190000Y-17780000D03*
D18*
X36830000Y-13970000D03*
D25*
X36830000Y-20170140D03*
D18*
X32029400Y-16969740D03*
D19*
X68580000Y-19685000D03*
D20*
X71120000Y-19685000D03*
X73660000Y-19685000D03*
X76200000Y-19685000D03*
X78740000Y-19685000D03*
X81280000Y-19685000D03*
X83820000Y-19685000D03*
X86360000Y-19685000D03*
D26*
X68580000Y-10160000D03*
D27*
X71120000Y-10160000D03*
X73660000Y-10160000D03*
X78740000Y-10160000D03*
X81280000Y-10160000D03*
X83820000Y-10160000D03*
X86360000Y-10160000D03*
D13*
X60980000Y-17780000D03*
D12*
X63480000Y-17780000D03*
D28*
X209344260Y-15875000D03*
X184355740Y-15875000D03*
D19*
X202336400Y-17297400D03*
D20*
X199593200Y-17297400D03*
X196850000Y-17297400D03*
X194106800Y-17297400D03*
X191363600Y-17297400D03*
X192735200Y-14452600D03*
X195478400Y-14452600D03*
X198247000Y-14452600D03*
X200964800Y-14452600D03*
D11*
X17780000Y-69850000D03*
D10*
X17780000Y-67310000D03*
X17780000Y-64770000D03*
X17780000Y-62230000D03*
X17780000Y-59690000D03*
X17780000Y-57150000D03*
X17780000Y-54610000D03*
X17780000Y-52070000D03*
X10160000Y-52070000D03*
X10160000Y-54610000D03*
X10160000Y-57150000D03*
X10160000Y-59690000D03*
X10160000Y-62230000D03*
X10160000Y-64770000D03*
X10160000Y-67310000D03*
X10160000Y-69850000D03*
D11*
X19050000Y-20320000D03*
D10*
X21590000Y-20320000D03*
X24130000Y-20320000D03*
M02*
